<svg xmlns="http://www.w3.org/2000/svg" width="12" height="10" class="love">
  <path fill-rule="evenodd" d="M6 3.5216027c-.4202991-.8264512-.7986737-1.4533238-1.30391616-1.88063665C4.19084138 1.2136532 3.57419007 1 2.84611142 1c-.8516314 0-1.5388832.27821875-2.06177606.83466458C.2614425 2.39111042 0 3.12715748 0 4.04282785c0 .81236396.17981067 1.4603671.5394374 1.9440289.35962673.48366178 1.0557036.95557712 2.0882515 1.41576017.0353008.01408724.08383865.03521778.14561502.06339225C4.44567852 8.21732845 5.46497335 9.06254995 6 10c.53502665-.93745005 1.55432148-1.78267155 3.22669608-2.53399083.06177637-.02817447.11031422-.049305.145615-.06339225 1.03254792-.46018305 1.72862482-.9320984 2.08825152-1.41576017C11.8201893 5.50319495 12 4.8551918 12 4.04282785c0-.91567037-.2614425-1.65171743-.7843354-2.20816327C10.6927718 1.27821875 10.00552 1 9.15388858 1c-.72807865 0-1.34472996.2136532-1.84997242.64096605C6.7986737 2.0682789 6.4202991 2.6951515 6 3.5216027c.00027153.01431392.0005227.0477968.00075438.09823085C6.00000456 3.56975145 5.99972136 3.53629122 6 3.5216027z"></path>
</svg>
